<svg id="Camada_1" data-name="Camada 1" xmlns="http://www.w3.org/2000/svg" viewBox="0 0 59.87 22.22"><defs><style>.cls-1{fill:#f4ca5d;}.cls-1,.cls-2{fill-rule:evenodd;}.cls-2{fill:#f4815d;}.cls-3{fill:#37d29f;stroke:#1ece94;}</style></defs><title>logo</title><g id="layer1"><g id="g3761"><path id="path3732" class="cls-1" d="M55.37,19c0,.94-1.19,1.7-2.65,1.7H40.78l3-1.68,8.72-13.4H44.21l-3.65-1.7H55.44V5.19a1.27,1.27,0,0,1-.21.69L46.68,19ZM5,11.69H8.08V8A3.65,3.65,0,0,1,9,5.57H5.15c-.08,0-.14,0-.14.09Zm0,1.7H8.08v3.18c0,2.5,1.95,4.15,5.88,4.15s5.9-1.65,5.9-4.15V8c0-2.52-1.94-4.15-5.9-4.15-.3,0-.58,0-.86,0v0h-11c-.15,0-.28.08-.28.18v16.6h.41c1.52,0,2.75-.79,2.75-1.77Zm5.9,3.27V8c0-1.49,1-2.38,3.05-2.38S17,6.46,17,8v8.71c0,1.51-.95,2.38-3,2.38S10.91,18.17,10.91,16.66Zm11.45-.09V8c0-2.52,1.94-4.15,5.87-4.15S34.14,5.52,34.14,8v8.53c0,2.5-2,4.15-5.91,4.15S22.36,19.07,22.36,16.57Zm2.83.09V8c0-1.49,1-2.38,3-2.38s3.05.89,3.05,2.38v8.71c0,1.51-1,2.38-3.05,2.38S25.19,18.17,25.19,16.66ZM61.06,3.87h-3V20.65h3Z" transform="translate(-1.85 1.5)"/><path id="path3734" class="cls-1" d="M40.56,3.87H35.92V20.65h4.64c2.88-.07,4.3-1.69,4.3-4.13V8c0-2.47-1.42-4.07-4.3-4.14ZM38.9,16.38v2.36h1.49c1,0,1.49-.87,1.49-2.36V7.72c0-1.47-.47-2.36-1.49-2.36H38.9v11Z" transform="translate(-1.85 1.5)"/><path id="path3736" class="cls-2" d="M14.27,16.13c1.19,0,2.15-.69,2.15-1.55S15.46,13,14.27,13s-2.16.69-2.16,1.55S13.08,16.13,14.27,16.13Z" transform="translate(-1.85 1.5)"/><path id="path3738" class="cls-2" d="M28,16.13c1.19,0,2.16-.69,2.16-1.55S29.22,13,28,13s-2.16.69-2.16,1.55S26.84,16.13,28,16.13Z" transform="translate(-1.85 1.5)"/><path id="path3740" class="cls-3" d="M59.56.36C59.26.19,57-1.33,59.13-.85,59.53-.76,59.53-.25,59.56.36Z" transform="translate(-1.85 1.5)"/><path id="path3742" class="cls-3" d="M59.42.31c.31-.17,2.58-1.7.43-1.22C59.46-.82,59.45-.31,59.42.31Z" transform="translate(-1.85 1.5)"/><path id="path3744" class="cls-2" d="M59.58,2.81c1.18,0,2.15-.66,2.15-1.49s-1-1.48-2.15-1.48S57.43.5,57.43,1.32,58.39,2.81,59.58,2.81Z" transform="translate(-1.85 1.5)"/></g></g></svg>